<?xml version="1.0" encoding="utf-8"?>
<!-- Generator: Adobe Illustrator 21.0.0, SVG Export Plug-In . SVG Version: 6.00 Build 0)  -->
<svg version="1.1" id="Layer_1" xmlns="http://www.w3.org/2000/svg" xmlns:xlink="http://www.w3.org/1999/xlink" x="0px" y="0px"
	 viewBox="0 0 496 512" style="enable-background:new 0 0 496 512;" xml:space="preserve">
<style type="text/css">
	.st0{fill:#007BFF;}
</style>
<path class="st0" d="M248,8C111,8,0,119,0,256s111,248,248,248s248-111,248-248S385,8,248,8z M88,256H56c0-105.9,86.1-192,192-192
	v32C159.8,96,88,167.8,88,256z M248,352c-53,0-96-43-96-96s43-96,96-96s96,43,96,96S301,352,248,352z M248,224
	c-17.7,0-32,14.3-32,32s14.3,32,32,32s32-14.3,32-32S265.7,224,248,224z"/>
</svg>
